<?xml version="1.0" standalone="no"?>
<!DOCTYPE svg PUBLIC "-//W3C//DTD SVG 20010904//EN"
 "http://www.w3.org/TR/2001/REC-SVG-20010904/DTD/svg10.dtd">
<svg version="1.0" xmlns="http://www.w3.org/2000/svg"
 width="700.000000pt" height="700.000000pt" viewBox="0 0 700.000000 700.000000"
 preserveAspectRatio="xMidYMid meet">
<metadata>
Created by potrace 1.11, written by Peter Selinger 2001-2013
</metadata>
<g transform="translate(0.000000,700.000000) scale(0.100000,-0.100000)"
fill="#000000" stroke="none">
<path d="M2090 6756 c-96 -27 -171 -80 -223 -159 -69 -103 -68 -100 -69 -752
0 -322 -3 -587 -7 -590 -4 -2 -191 -5 -415 -5 -377 -1 -411 -3 -465 -21 -134
-46 -204 -174 -241 -444 -6 -44 -13 -91 -15 -105 -2 -14 -9 -61 -15 -105 -6
-44 -13 -91 -15 -104 -5 -26 -30 -209 -39 -276 -3 -22 -8 -51 -10 -65 -2 -14
-7 -47 -11 -75 -14 -107 -16 -121 -20 -145 -3 -14 -7 -45 -10 -70 -3 -25 -10
-72 -15 -105 -5 -33 -12 -80 -15 -104 -3 -23 -7 -55 -9 -70 -3 -14 -10 -62
-16 -106 -6 -44 -13 -91 -15 -104 -5 -26 -30 -209 -39 -276 -3 -22 -8 -51 -10
-65 -3 -14 -10 -63 -16 -110 -6 -47 -13 -96 -15 -110 -3 -14 -14 -90 -25 -170
-11 -80 -22 -156 -25 -170 -3 -24 -9 -62 -20 -145 -3 -22 -10 -65 -16 -95 -7
-36 -9 -338 -7 -885 l3 -830 31 -65 c59 -123 146 -195 270 -223 49 -11 562
-13 2929 -12 l2870 1 58 23 c75 30 150 90 192 155 66 104 64 71 65 974 0 472
-4 838 -9 867 -5 28 -19 115 -31 195 -28 197 -36 253 -44 313 -5 30 -31 215
-41 285 -3 17 -7 49 -10 70 -3 20 -7 51 -10 67 -3 17 -7 46 -10 65 -9 59 -76
532 -81 575 -3 22 -8 51 -10 65 -2 14 -7 43 -10 65 -10 73 -55 390 -59 415 -2
14 -9 61 -15 105 -6 44 -13 96 -16 115 -18 127 -25 178 -29 200 -2 14 -7 45
-10 70 -11 82 -15 104 -27 155 -30 135 -97 218 -202 253 -58 20 -87 21 -520
22 -253 0 -462 3 -465 6 -3 3 -6 270 -7 592 -1 438 -4 598 -14 632 -36 132
-134 232 -264 271 -58 18 -122 19 -1376 18 -1021 -1 -1325 -4 -1360 -13z"/>
</g>
</svg>
